<svg width="357" height="19" viewBox="0 0 357 19" fill="none" xmlns="http://www.w3.org/2000/svg">
<path d="M174.295 14.1449C173.667 14.1449 173.116 13.9955 172.643 13.6966C172.172 13.3978 171.803 12.9798 171.538 12.4425C171.275 11.9052 171.144 11.2773 171.144 10.5589C171.144 9.83452 171.275 9.20215 171.538 8.66184C171.803 8.12154 172.172 7.70197 172.643 7.40314C173.116 7.10431 173.667 6.9549 174.295 6.9549C174.923 6.9549 175.472 7.10431 175.943 7.40314C176.417 7.70197 176.785 8.12154 177.048 8.66184C177.314 9.20215 177.446 9.83452 177.446 10.5589C177.446 11.2773 177.314 11.9052 177.048 12.4425C176.785 12.9798 176.417 13.3978 175.943 13.6966C175.472 13.9955 174.923 14.1449 174.295 14.1449ZM174.295 13.185C174.772 13.185 175.165 13.0628 175.472 12.8183C175.78 12.5738 176.008 12.2523 176.156 11.8539C176.304 11.4554 176.378 11.0238 176.378 10.5589C176.378 10.0941 176.304 9.66095 176.156 9.2595C176.008 8.85804 175.78 8.53356 175.472 8.28604C175.165 8.03853 174.772 7.91477 174.295 7.91477C173.818 7.91477 173.426 8.03853 173.118 8.28604C172.81 8.53356 172.582 8.85804 172.434 9.2595C172.286 9.66095 172.212 10.0941 172.212 10.5589C172.212 11.0238 172.286 11.4554 172.434 11.8539C172.582 12.2523 172.81 12.5738 173.118 12.8183C173.426 13.0628 173.818 13.185 174.295 13.185ZM183.46 11.1566V7.04545H184.529V14H183.46V12.8228H183.388C183.225 13.176 182.971 13.4763 182.627 13.7238C182.283 13.9683 181.849 14.0906 181.323 14.0906C180.889 14.0906 180.502 13.9955 180.164 13.8053C179.826 13.6121 179.561 13.3224 179.367 12.936C179.174 12.5466 179.078 12.0561 179.078 11.4645V7.04545H180.146V11.392C180.146 11.8991 180.288 12.3036 180.572 12.6055C180.858 12.9073 181.224 13.0582 181.667 13.0582C181.933 13.0582 182.203 12.9903 182.478 12.8545C182.756 12.7187 182.988 12.5104 183.175 12.2297C183.365 11.949 183.46 11.5913 183.46 11.1566Z" fill="white"/>
<rect y="9.66071" width="163.929" height="0.910714" fill="white"/>
<rect x="193.071" y="9.66071" width="163.929" height="0.910714" fill="white"/>
</svg>
