<svg width="71" height="44" viewBox="0 0 71 44" fill="none" xmlns="http://www.w3.org/2000/svg">
<path d="M0.87226 13.7231C0.87226 12.0658 1.45377 10.6556 2.61678 9.49259C3.80887 8.3005 5.23356 7.70446 6.89085 7.70446H26.6039V43.031H20.8906V33H6.89085C5.23356 33 3.80887 32.4185 2.61678 31.2555C1.45377 30.0634 0.87226 28.6387 0.87226 26.9814V13.7231ZM6.62918 13.7231V26.9814C6.62918 27.1849 6.7164 27.2867 6.89085 27.2867H20.5853C20.7889 27.2867 20.8906 27.1849 20.8906 26.9814V13.7231C20.8906 13.5195 20.7889 13.4178 20.5853 13.4178H6.89085C6.7164 13.4178 6.62918 13.5195 6.62918 13.7231ZM35.5909 12.7636H46.8257V17.3342H35.5909C35.4281 17.3342 35.3467 17.4156 35.3467 17.5784V33H30.7761V17.5784C30.7761 16.2526 31.2413 15.1245 32.1717 14.1941C33.1253 13.2404 34.2651 12.7636 35.5909 12.7636Z" fill="#FF6D00" fill-opacity="0.91"/>
<path d="M34.8674 41.9084L34.5612 40.9821H32.5829L32.2768 41.9084H30.848L32.7635 36.3818H34.3964L36.304 41.9084H34.8674ZM32.9205 39.9616H34.2236L33.5721 37.999L32.9205 39.9616ZM37.4571 41.1627C36.9128 40.6288 36.6407 39.9537 36.6407 39.1373C36.6407 38.3208 36.9128 37.6483 37.4571 37.1197C38.0067 36.5859 38.6765 36.319 39.4668 36.319C40.0791 36.319 40.6234 36.4812 41.0997 36.8057C41.5759 37.1302 41.9083 37.5803 42.0967 38.156H40.4952C40.2859 37.753 39.9509 37.5515 39.4904 37.5515C39.0298 37.5515 38.6661 37.6954 38.3992 37.9833C38.1375 38.2711 38.0067 38.6558 38.0067 39.1373C38.0067 39.6188 38.1375 40.0034 38.3992 40.2913C38.6661 40.5791 39.022 40.723 39.4668 40.723C39.7861 40.723 40.0451 40.6445 40.244 40.4875C40.4481 40.3253 40.5842 40.1107 40.6522 39.8438H39.0978V38.8233H42.0967V39.8438C41.9972 40.3462 41.7225 40.8146 41.2724 41.249C41.0578 41.4584 40.7909 41.6285 40.4717 41.7593C40.1576 41.8901 39.8227 41.9555 39.4668 41.9555C38.6765 41.9555 38.0067 41.6913 37.4571 41.1627ZM46.294 36.3818V37.4023H44.3001V38.5878H46.0585V39.6083H44.3001V40.8879H46.294V41.9084H42.9576V36.3818H46.294ZM51.0377 36.3818H52.3801V41.9084H51.0377L48.7925 38.4307V41.9084H47.4501V36.3818H48.7925L51.0377 39.8595V36.3818ZM54.9026 40.8879H55.4992C56.0121 40.8879 56.4151 40.7309 56.7082 40.4169C57.0013 40.1029 57.1478 39.6816 57.1478 39.153C57.1478 38.6244 57.0013 38.2031 56.7082 37.8891C56.4151 37.5751 56.0121 37.4181 55.4992 37.4181H54.9026V40.8879ZM55.4992 36.3975C56.3785 36.3975 57.1007 36.654 57.6659 37.1668C58.2312 37.6745 58.5138 38.3365 58.5138 39.153C58.5138 39.9642 58.2312 40.6262 57.6659 41.1391C57.1007 41.652 56.3785 41.9084 55.4992 41.9084H53.5602V36.3975H55.4992ZM62.8649 41.9084L62.5587 40.9821H60.5804L60.2743 41.9084H58.8455L60.761 36.3818H62.3939L64.3015 41.9084H62.8649ZM60.918 39.9616H62.2212L61.5696 37.999L60.918 39.9616ZM66.3025 39.7653V41.9084H64.9601V36.3975H67.1346C67.7731 36.3975 68.2703 36.5624 68.6262 36.8921C68.9821 37.2218 69.16 37.6195 69.16 38.0853C69.16 38.4046 69.0632 38.716 68.8695 39.0195C68.6759 39.3231 68.3593 39.5376 67.9197 39.6632L69.2699 41.9084H67.6998L66.4595 39.7653H66.3025ZM66.3025 37.4181V38.7448H67.1346C67.3387 38.7448 67.4983 38.6846 67.6135 38.5642C67.7339 38.4438 67.794 38.2868 67.794 38.0932C67.794 37.8943 67.7339 37.7321 67.6135 37.6065C67.4931 37.4809 67.3335 37.4181 67.1346 37.4181H66.3025Z" fill="#FF6D00" fill-opacity="0.91"/>
<g clip-path="url(#clip0_309_1304)">
<path d="M56.8974 30.6141H54.0818C53.0861 30.6141 52.1312 30.2138 51.4272 29.5012C50.7232 28.7885 50.3276 27.822 50.3276 26.8142V18.2645C50.3276 17.2567 50.7232 16.2902 51.4272 15.5776C52.1312 14.865 53.0861 14.4646 54.0818 14.4646H64.4057C65.4013 14.4646 66.3562 14.865 67.0603 15.5776C67.7643 16.2902 68.1598 17.2567 68.1598 18.2645V21.1144M55.9589 13.5146V15.4146M62.5286 13.5146V15.4146M50.3276 19.2145H68.1598M65.8135 26.4751L64.4057 27.9" stroke="#FF6D00" stroke-opacity="0.91" stroke-width="2.13789" stroke-linecap="round" stroke-linejoin="round"/>
<path d="M64.4051 32.5141C66.9968 32.5141 69.0978 30.3875 69.0978 27.7643C69.0978 25.141 66.9968 23.0144 64.4051 23.0144C61.8134 23.0144 59.7124 25.141 59.7124 27.7643C59.7124 30.3875 61.8134 32.5141 64.4051 32.5141Z" stroke="#FF6D00" stroke-opacity="0.91" stroke-width="2.13789" stroke-linecap="round" stroke-linejoin="round"/>
</g>
<defs>
<clipPath id="clip0_309_1304">
<rect width="22.5249" height="22.7993" fill="white" transform="translate(48.4502 11.6147)"/>
</clipPath>
</defs>
</svg>
