<svg width="174" height="106" viewBox="0 0 174 106" fill="none" xmlns="http://www.w3.org/2000/svg">
<path d="M2.12551 33.0262C2.12551 28.9878 3.54252 25.5515 6.37653 22.7175C9.28139 19.8127 12.7531 18.3602 16.7915 18.3602H64.828V104.443H50.9059V80H16.7915C12.7531 80 9.28139 78.583 6.37653 75.749C3.54252 72.8441 2.12551 69.3725 2.12551 65.334V33.0262ZM16.1539 33.0262V65.334C16.1539 65.8299 16.3664 66.0779 16.7915 66.0779H50.162C50.658 66.0779 50.9059 65.8299 50.9059 65.334V33.0262C50.9059 32.5303 50.658 32.2823 50.162 32.2823H16.7915C16.3664 32.2823 16.1539 32.5303 16.1539 33.0262ZM86.7274 30.6882H114.104V41.8259H86.7274C86.3306 41.8259 86.1323 42.0242 86.1323 42.421V80H74.9946V42.421C74.9946 39.1902 76.1282 36.4412 78.3954 34.174C80.7193 31.8501 83.4966 30.6882 86.7274 30.6882Z" fill="white"/>
<path d="M85.4221 100.707L84.676 98.4493H79.8554L79.1093 100.707H75.6277L80.2954 87.2393H84.2743L88.9228 100.707H85.4221ZM80.6779 95.9624H83.8535L82.2657 91.18L80.6779 95.9624ZM91.7327 98.8892C90.4064 97.5884 89.7433 95.9433 89.7433 93.9538C89.7433 91.9643 90.4064 90.3256 91.7327 89.0375C93.0718 87.7367 94.7042 87.0863 96.6299 87.0863C98.122 87.0863 99.4483 87.4816 100.609 88.2723C101.769 89.063 102.579 90.1598 103.038 91.5626H99.1359C98.6258 90.5806 97.8096 90.0896 96.6873 90.0896C95.565 90.0896 94.6787 90.4403 94.0283 91.1418C93.3906 91.8432 93.0718 92.7805 93.0718 93.9538C93.0718 95.1271 93.3906 96.0644 94.0283 96.7658C94.6787 97.4673 95.5459 97.818 96.6299 97.818C97.4079 97.818 98.0391 97.6267 98.5238 97.2441C99.0211 96.8487 99.3527 96.3259 99.5185 95.6755H95.7308V93.1886H103.038V95.6755C102.796 96.8998 102.126 98.0412 101.03 99.0997C100.507 99.6098 99.8564 100.024 99.0785 100.343C98.3133 100.662 97.4971 100.821 96.6299 100.821C94.7042 100.821 93.0718 100.177 91.7327 98.8892ZM113.266 87.2393V89.7262H108.407V92.6147H112.692V95.1016H108.407V98.2197H113.266V100.707H105.136V87.2393H113.266ZM124.826 87.2393H128.097V100.707H124.826L119.355 92.2321V100.707H116.084V87.2393H119.355L124.826 95.7137V87.2393ZM134.244 98.2197H135.697C136.947 98.2197 137.929 97.8371 138.643 97.0719C139.358 96.3067 139.715 95.2801 139.715 93.9921C139.715 92.704 139.358 91.6774 138.643 90.9122C137.929 90.147 136.947 89.7644 135.697 89.7644H134.244V98.2197ZM135.697 87.2776C137.84 87.2776 139.6 87.9025 140.977 89.1523C142.355 90.3893 143.043 92.0026 143.043 93.9921C143.043 95.9688 142.355 97.582 140.977 98.8318C139.6 100.082 137.84 100.707 135.697 100.707H130.972V87.2776H135.697ZM153.646 100.707L152.9 98.4493H148.079L147.333 100.707H143.852L148.519 87.2393H152.498L157.147 100.707H153.646ZM148.902 95.9624H152.077L150.49 91.18L148.902 95.9624ZM162.023 95.4842V100.707H158.751V87.2776H164.05C165.606 87.2776 166.818 87.6793 167.685 88.4827C168.552 89.2862 168.986 90.2554 168.986 91.3904C168.986 92.1684 168.75 92.9272 168.278 93.6669C167.806 94.4065 167.035 94.9294 165.963 95.2355L169.254 100.707H165.428L162.405 95.4842H162.023ZM162.023 89.7644V92.9973H164.05C164.548 92.9973 164.937 92.8507 165.217 92.5573C165.511 92.264 165.657 91.8814 165.657 91.4096C165.657 90.9249 165.511 90.5296 165.217 90.2235C164.924 89.9175 164.535 89.7644 164.05 89.7644H162.023Z" fill="white"/>
<path d="M139.487 74.1497H132.584C130.143 74.1497 127.802 73.18 126.076 71.454C124.35 69.728 123.38 67.387 123.38 64.9461V44.238C123.38 41.7971 124.35 39.4561 126.076 37.7301C127.802 36.0041 130.143 35.0344 132.584 35.0344H157.894C160.335 35.0344 162.676 36.0041 164.402 37.7301C166.128 39.4561 167.097 41.7971 167.097 44.238V51.1407M137.186 32.7335V37.3353M153.292 32.7335V37.3353M123.38 46.5389H167.097M161.345 64.1247L157.894 67.576" stroke="white" stroke-width="5.20958" stroke-linecap="round" stroke-linejoin="round"/>
<path d="M157.894 78.7515C164.247 78.7515 169.398 73.6007 169.398 67.247C169.398 60.8932 164.247 55.7425 157.894 55.7425C151.54 55.7425 146.389 60.8932 146.389 67.247C146.389 73.6007 151.54 78.7515 157.894 78.7515Z" stroke="white" stroke-width="5.20958" stroke-linecap="round" stroke-linejoin="round"/>
</svg>
