<svg width="19" height="18" viewBox="0 0 19 18" fill="none" xmlns="http://www.w3.org/2000/svg">
<path fill-rule="evenodd" clip-rule="evenodd" d="M14.8114 8.56243H6.01202L8.70635 5.46953C8.96889 5.16876 8.92587 4.72114 8.61142 4.47073C8.29623 4.2196 7.829 4.26075 7.56721 4.56153L3.85907 8.81781C3.83015 8.85115 3.81531 8.89017 3.79381 8.92706C3.77601 8.95685 3.7545 8.98239 3.74115 9.01502C3.70778 9.0966 3.68775 9.18243 3.68775 9.26898C3.68775 9.26969 3.68701 9.27111 3.68701 9.27182C3.68701 9.27252 3.68775 9.27394 3.68775 9.27465C3.68775 9.3612 3.70778 9.44703 3.74115 9.52861C3.7545 9.56124 3.77601 9.58678 3.79381 9.61657C3.81531 9.65346 3.83015 9.69248 3.85907 9.72582L7.56721 13.9821C7.71405 14.1502 7.92467 14.2375 8.13678 14.2375C8.30439 14.2375 8.47274 14.1836 8.61142 14.0729C8.92587 13.8225 8.96889 13.3749 8.70635 13.0741L6.01202 9.9812H14.8114C15.2208 9.9812 15.5531 9.66339 15.5531 9.27182C15.5531 8.88024 15.2208 8.56243 14.8114 8.56243" fill="black"/>
</svg>
