<svg width="18" height="18" viewBox="0 0 18 18" fill="none" xmlns="http://www.w3.org/2000/svg">
<path fill-rule="evenodd" clip-rule="evenodd" d="M3.72747 9.98108H12.5269L9.83255 13.074C9.57001 13.3748 9.61303 13.8224 9.92748 14.0728C10.2427 14.3239 10.7099 14.2828 10.9724 13.982L14.6806 9.7257C14.7095 9.69236 14.7236 9.65334 14.7451 9.61646C14.7629 9.58666 14.7844 9.56112 14.7977 9.52849C14.8311 9.44691 14.8511 9.36108 14.8511 9.27453C14.8511 9.27383 14.8519 9.27241 14.8519 9.2717C14.8519 9.27099 14.8511 9.26957 14.8511 9.26886C14.8511 9.18231 14.8311 9.09648 14.7977 9.0149C14.7844 8.98227 14.7629 8.95673 14.7451 8.92694C14.7236 8.89005 14.7095 8.85103 14.6806 8.81769L10.9724 4.56141C10.8248 4.39328 10.6142 4.30603 10.4021 4.30603C10.2345 4.30603 10.0662 4.35994 9.92748 4.47061C9.61303 4.72102 9.57001 5.16864 9.83255 5.46941L12.5269 8.56232H3.72747C3.31809 8.56232 2.98584 8.88012 2.98584 9.2717C2.98584 9.66328 3.31809 9.98108 3.72747 9.98108" fill="black"/>
</svg>
