<svg width="22" height="22" viewBox="0 0 22 22" fill="none" xmlns="http://www.w3.org/2000/svg">
<path opacity="1" fill-rule="evenodd" clip-rule="evenodd" d="M4.33333 15.1667C4.33333 14.5708 4.82083 14.0833 5.41667 14.0833C6.0125 14.0833 6.5 14.5708 6.5 15.1667C6.5 15.7625 6.0125 16.25 5.41667 16.25C4.82083 16.25 4.33333 15.7625 4.33333 15.1667ZM9.75 14.0833H14.0833C14.6792 14.0833 15.1667 14.5708 15.1667 15.1667C15.1667 15.7625 14.6792 16.25 14.0833 16.25H9.75C9.15417 16.25 8.66667 15.7625 8.66667 15.1667C8.66667 14.5708 9.15417 14.0833 9.75 14.0833ZM16.25 19.5H3.25C2.65308 19.5 2.16667 19.0136 2.16667 18.4167V11.9167H17.3333V18.4167C17.3333 19.0136 16.8469 19.5 16.25 19.5M3.25 4.33333H4.33333V5.41667C4.33333 6.0125 4.82083 6.5 5.41667 6.5C6.0125 6.5 6.5 6.0125 6.5 5.41667V4.33333H13V5.41667C13 6.0125 13.4875 6.5 14.0833 6.5C14.6792 6.5 15.1667 6.0125 15.1667 5.41667V4.33333H16.25C16.8469 4.33333 17.3333 4.81975 17.3333 5.41667V9.75H2.16667V5.41667C2.16667 4.81975 2.65308 4.33333 3.25 4.33333M16.25 2.16667H15.1667V1.08333C15.1667 0.4875 14.6792 0 14.0833 0C13.4875 0 13 0.4875 13 1.08333V2.16667H6.5V1.08333C6.5 0.4875 6.0125 0 5.41667 0C4.82083 0 4.33333 0.4875 4.33333 1.08333V2.16667H3.25C1.45817 2.16667 0 3.62483 0 5.41667V18.4167C0 20.2085 1.45817 21.6667 3.25 21.6667H16.25C18.0418 21.6667 19.5 20.2085 19.5 18.4167V5.41667C19.5 3.62483 18.0418 2.16667 16.25 2.16667" fill="black"/>
</svg>
