<svg width="41" height="41" viewBox="0 0 41 41" fill="none" xmlns="http://www.w3.org/2000/svg">
<path d="M2.88284 1.40944C0.640652 2.81882 0.704715 17.7454 3.39534 22.5501L20.1157 12.3001C17.5532 7.75163 4.9969 0.128192 2.88284 1.40944Z" fill="#4C5359"/>
<path d="M6.08593 7.23908C5.12499 7.81564 4.67655 17.6172 6.34218 20.6922L17.0406 14.1578C15.5031 11.211 6.9828 6.72658 6.08593 7.23908Z" fill="#F7A4A4"/>
<path d="M38.1172 1.40944C40.3594 2.81882 40.2954 17.7454 37.6688 22.5501L20.9485 12.3001C23.4469 7.75163 36.0032 0.128192 38.1172 1.40944Z" fill="#4C5359"/>
<path d="M34.914 7.23908C35.875 7.81564 36.3234 17.6172 34.6578 20.6922L23.8953 14.1578C25.4968 11.211 34.0171 6.72658 34.914 7.23908Z" fill="#F7A4A4"/>
<path d="M20.3719 8.39209C3.01099 8.39209 1.40942 20.8202 1.40942 27.8671C1.40942 30.7499 9.86567 39.7187 20.3719 39.7187C30.8782 39.7187 39.3344 30.7499 39.3344 27.8671C39.3344 20.8202 37.7329 8.39209 20.3719 8.39209Z" fill="#4C5359"/>
<path d="M15.5032 24.7922C15.5032 24.7922 13.5173 27.8672 9.86572 26.9062C6.21416 25.9453 6.02197 22.2937 6.02197 22.2937C6.02197 22.2937 8.00791 19.2187 11.6595 20.1797C15.3751 21.1406 15.5032 24.7922 15.5032 24.7922Z" fill="#BFFFAB"/>
<path d="M15.1187 23.1906C15.1187 23.1906 13.389 25.1125 10.9546 25.1125C8.32803 25.1125 6.79053 21.3328 6.79053 21.3328C6.79053 21.3328 8.52022 19.3469 11.6593 20.1156C14.5421 20.8844 15.1187 23.1906 15.1187 23.1906Z" fill="#93E67F"/>
<path d="M12.4282 23.1267C12.4282 27.3548 10.3782 27.3548 10.3782 23.1267C10.4422 18.8985 12.4282 18.8985 12.4282 23.1267Z" fill="#4C5359"/>
<path d="M25.2407 24.7922C25.2407 24.7922 27.2267 27.8672 30.8782 26.9062C34.5298 25.9453 34.722 22.2937 34.722 22.2937C34.722 22.2937 32.736 19.2187 29.0845 20.1797C25.3688 21.1406 25.2407 24.7922 25.2407 24.7922Z" fill="#BFFFAB"/>
<path d="M25.561 23.1906C25.561 23.1906 27.2907 25.1125 29.7251 25.1125C32.3517 25.1125 33.8892 21.3328 33.8892 21.3328C33.8892 21.3328 32.1595 19.3469 29.0204 20.1156C26.1376 20.8844 25.561 23.1906 25.561 23.1906Z" fill="#93E67F"/>
<path d="M28.2515 23.1267C28.2515 27.3548 30.3015 27.3548 30.3015 23.1267C30.3015 18.8985 28.2515 18.8985 28.2515 23.1267Z" fill="#4C5359"/>
<path d="M25.8812 28.1875C24.2155 26.9062 22.4218 22.614 20.3718 22.614C18.3218 22.614 16.464 26.9062 14.7983 28.1875C12.1718 30.2375 5.18896 32.5437 5.18896 32.5437C5.18896 32.5437 12.6202 39.0781 20.3077 39.0781C27.9952 39.0781 35.4265 32.5437 35.4265 32.5437C35.4905 32.5437 28.5077 30.2375 25.8812 28.1875Z" fill="white"/>
<path d="M20.3718 36.5156C20.9732 36.5156 21.4608 35.7986 21.4608 34.9141C21.4608 34.0295 20.9732 33.3125 20.3718 33.3125C19.7703 33.3125 19.2827 34.0295 19.2827 34.9141C19.2827 35.7986 19.7703 36.5156 20.3718 36.5156Z" fill="#FF94A4"/>
<path d="M25.7532 34.0172C25.1125 34.4016 24.4079 34.5297 23.7672 34.5297C23.0625 34.4657 22.4219 34.2735 21.9094 33.825C21.3969 33.4407 21.0125 32.8641 20.8844 32.1594L20.3719 29.2766L19.8594 32.1594C19.7313 32.8 19.3469 33.3766 18.8344 33.825C18.3219 34.2735 17.6172 34.4657 16.9766 34.5297C16.2719 34.5297 15.5672 34.4016 14.9907 34.0172C14.35 33.6329 13.8375 33.0563 13.5813 32.2875C13.6454 33.1204 14.0297 33.8891 14.6704 34.4657C15.311 35.0422 16.1438 35.3625 16.9125 35.3625C17.8094 35.4266 18.6422 35.1704 19.3469 34.6579C19.7313 34.4016 20.0516 34.0172 20.3079 33.6329C20.5641 34.0172 20.8844 34.4016 21.2688 34.6579C21.9735 35.1704 22.8704 35.4266 23.7032 35.3625C24.536 35.2985 25.3688 34.9782 26.0094 34.4657C26.65 33.8891 27.0985 33.1204 27.0985 32.2875C26.9063 32.9922 26.3938 33.6329 25.7532 34.0172Z" fill="#4C5359"/>
<path d="M22.9344 28.7C22.4219 28.0594 20.8204 27.9954 20.3719 27.9954C19.9235 27.9954 18.3219 28.0594 17.8094 28.7C17.4251 29.1485 17.7454 30.3016 18.7063 31.2625C19.3469 31.9032 19.9235 32.0954 20.3719 32.0954C20.8204 32.0954 21.461 31.9032 22.0376 31.2625C22.9985 30.2375 23.3188 29.1485 22.9344 28.7Z" fill="#4C5359"/>
</svg>
