<svg width="22" height="22" viewBox="0 0 22 22" fill="none" xmlns="http://www.w3.org/2000/svg">
<g opacity="1">
<path fill-rule="evenodd" clip-rule="evenodd" d="M20.8215 14.0576C20.2985 13.8716 19.7285 14.1446 19.5455 14.6666C18.4175 17.8566 15.3845 19.9996 12.0005 19.9996C7.58949 19.9996 4.00049 16.4116 4.00049 11.9996C4.00049 8.6156 6.14349 5.5826 9.33349 4.4546C9.85449 4.2716 10.1275 3.7006 9.94349 3.1796C9.75949 2.6596 9.18849 2.3856 8.66749 2.5706C4.67949 3.9796 2.00049 7.7686 2.00049 11.9996C2.00049 17.5136 6.48649 21.9996 12.0005 21.9996C16.2315 21.9996 20.0205 19.3216 21.4305 15.3326C21.6145 14.8126 21.3425 14.2416 20.8215 14.0576M14.0002 10V4.071C17.0612 4.511 19.4892 6.938 19.9292 10H14.0002ZM13.0002 2C12.4482 2 12.0002 2.447 12.0002 3V11C12.0002 11.553 12.4482 12 13.0002 12H21.0002C21.5522 12 22.0002 11.553 22.0002 11C22.0002 6.037 17.9622 2 13.0002 2V2Z" fill="black"/>
</g>
</svg>
