<svg width="22" height="22" viewBox="0 0 22 22" fill="none" xmlns="http://www.w3.org/2000/svg">
<path opacity="1" fill-rule="evenodd" clip-rule="evenodd" d="M13.3564 17.3351C13.2838 17.3351 13.2091 17.3319 13.1343 17.3243C12.181 17.23 11.4335 16.5573 11.2277 15.6094L8.32108 2.1847L5.32783 9.09853C5.15558 9.49503 4.7645 9.75178 4.33333 9.75178H1.08333C0.48425 9.75178 0 9.26645 0 8.66845C0 8.06937 0.48425 7.58512 1.08333 7.58512H3.62267L6.3375 1.3137C6.72208 0.429699 7.56925 -0.0848841 8.53233 0.0115325C9.48567 0.105783 10.2332 0.778533 10.439 1.72645L13.3456 15.1511L16.3388 8.23728C16.5111 7.84078 16.9011 7.58512 17.3333 7.58512H20.5833C21.1824 7.58512 21.6667 8.06937 21.6667 8.66845C21.6667 9.26645 21.1824 9.75178 20.5833 9.75178H18.044L15.3292 16.0221C14.9749 16.8379 14.2155 17.3351 13.3564 17.3351" fill="black"/>
</svg>
