<svg width="55" height="55" viewBox="0 0 55 55" fill="none" xmlns="http://www.w3.org/2000/svg">
<path d="M18.6947 11.5791L14.8141 13.058L9.24081 19.0927L6.07983 27.1143L7.06601 31.1934C8.0247 34.0901 9.61435 36.1083 12.4614 38.2602L14.5139 36.2863C14.5139 36.2863 17.4335 42.1759 22.7173 43.1307C22.7173 43.1307 30.5556 44.6096 34.6294 42.4608C35.7676 41.8611 36.5506 41.0636 37.1449 40.48C38.7262 38.9255 39.4618 37.7911 40.613 36.4773C41.7641 35.1634 41.8887 37.8584 41.8887 37.8584L43.2934 37.8156L47.1259 32.2927L48.6559 28.4198L48.6399 25.1702L46.9792 20.8809L43.2873 15.2159C43.2873 15.2159 41.273 11.9648 37.0487 12.2238C37.0487 12.2238 32.0834 8.53191 28.0096 9.10483C23.9357 9.67774 25.2519 8.58768 18.6947 11.5798V11.5791Z" fill="#F4AA41"/>
<path d="M27.4999 35.698L25.1448 37.5443H23.2351L23.6354 40.5158L23.957 42.819L24.5719 44.6103L26.736 45.7561L30.2369 45.3108L30.8939 43.6272L31.4293 40.4356L32.0198 37.6719L30.4921 37.8629L27.4999 35.698Z" fill="#EA5A47"/>
<path d="M24.8264 28.2019L23.6172 31.0665L25.2718 32.0213L26.2266 32.4033L29.5373 32.5309L31.7648 30.8121L30.428 28.3295L24.8264 28.2019Z" fill="#3F3F3F"/>
<path d="M22.5394 23C22.5394 23 21.1606 23.9487 20.4402 23.5102C20.2688 23.4059 20.1197 23.2688 20.0013 23.1069C19.8828 22.9449 19.7975 22.7612 19.7501 22.5662C19.7026 22.3713 19.6941 22.1689 19.7249 21.9706C19.7557 21.7723 19.8252 21.5821 19.9296 21.4107C20.1403 21.0646 20.4798 20.8163 20.8736 20.7205C21.0685 20.6731 21.2709 20.6646 21.4692 20.6954C21.6675 20.7262 21.8577 20.7957 22.0291 20.9C22.7495 21.3393 22.5394 23 22.5394 23Z" fill="black"/>
<path d="M28.7963 31.114C28.8125 31.2359 28.8578 31.3521 28.9285 31.4527C28.9992 31.5533 29.0931 31.6354 29.2023 31.6919C29.3115 31.7485 29.4327 31.7778 29.5557 31.7775C29.6786 31.7772 29.7997 31.7471 29.9085 31.69L31.5738 30.8146L30.6892 28.7338C30.6306 28.5958 30.5328 28.4782 30.4078 28.3955C30.2828 28.3127 30.1363 28.2686 29.9865 28.2686H25.2916C25.1361 28.2686 24.9844 28.3161 24.8566 28.4047C24.7289 28.4933 24.6312 28.6187 24.5766 28.7643L23.744 30.9819L25.5108 31.7091C25.6162 31.7524 25.7299 31.7716 25.8436 31.7652C25.9573 31.7589 26.0681 31.7272 26.168 31.6725C26.2679 31.6178 26.3543 31.5415 26.4209 31.4491C26.4874 31.3567 26.5325 31.2506 26.5528 31.1385M23.2497 38.2152C23.2497 38.2152 22.7012 44.932 25.5475 45.8059C27.568 46.427 29.4815 46.2131 30.1782 45.6149C30.8466 45.042 32.1887 42.1973 31.5738 38.2152" stroke="black" stroke-width="2" stroke-linecap="round" stroke-linejoin="round"/>
<path d="M33.8129 23C33.8129 23 35.1917 23.9487 35.9121 23.5102C36.2582 23.2995 36.5064 22.96 36.6022 22.5662C36.698 22.1725 36.6334 21.7568 36.4227 21.4107C36.212 21.0646 35.8724 20.8163 35.4787 20.7205C35.085 20.6248 34.6693 20.6893 34.3232 20.9C33.6021 21.3393 33.8129 23 33.8129 23Z" fill="black"/>
<path d="M19.5746 32.7249C19.2118 35.4764 21.2811 37.1172 22.8471 37.9499C23.293 38.1894 23.7989 38.294 24.3032 38.251C24.8075 38.208 25.2884 38.0193 25.6873 37.7077L27.6581 36.1616L29.6305 37.7077C30.0292 38.0191 30.5099 38.2079 31.0141 38.251C31.5182 38.2941 32.024 38.1898 32.4698 37.9506C34.0358 37.1172 36.1059 35.4756 35.7431 32.7241" stroke="black" stroke-width="2" stroke-linecap="round" stroke-linejoin="round"/>
<path d="M15.2396 21.6617C13.4705 25.6034 14.8523 31.6114 15.3313 33.4073C15.4238 33.7548 15.3894 34.1239 15.2343 34.4484L13.7157 37.6522C13.2398 38.6567 11.8877 38.8385 11.1719 37.9883C8.73282 35.0962 4.63379 29.2876 6.16844 25.2428C11.5638 11.0268 18.2906 11.3836 18.2906 11.3836C20.4639 9.90621 28.3006 6.08371 37.2442 12.052C37.2442 12.052 43.8381 10.7396 48.6552 24.99C50.0325 29.0668 46.035 34.8189 43.6509 37.7049C42.9398 38.5658 41.5762 38.387 41.098 37.3779L39.5893 34.1963C39.4341 33.8719 39.3997 33.5027 39.4923 33.1552C39.9721 31.3593 41.3532 25.3513 39.584 21.4096" stroke="black" stroke-width="2" stroke-linecap="round" stroke-linejoin="round"/>
<path d="M40.2034 35.4926C40.2034 35.4926 37.8529 40.6267 34.242 41.8107M14.8477 35.8791C14.8477 35.8791 17.1989 40.5251 20.8098 41.7091M27.6588 36.1618V33.8472" stroke="black" stroke-width="2" stroke-linecap="round" stroke-linejoin="round"/>
</svg>
