<svg width="28" height="25" viewBox="0 0 28 25" fill="none" xmlns="http://www.w3.org/2000/svg">
<path d="M19.4878 9.81497L19.4144 10.254L15.4598 7.99421L16.4625 1.97362C16.4625 1.9736 16.4625 1.97357 16.4625 1.97354C16.4953 1.77694 16.6671 1.63042 16.8689 1.63042C17.0001 1.63042 17.1208 1.69075 17.1995 1.79573L17.1998 1.79613L17.992 2.85082L18.202 3.13042H18.5517H20.9939C21.4016 3.13042 21.796 3.29435 22.088 3.58633L22.0893 3.58771L22.9331 4.42677L23.1379 4.63042H23.4267H26.0517C26.2885 4.63042 26.4767 4.81858 26.4767 5.05542V6.18042C26.4767 7.8657 25.112 9.23042 23.4267 9.23042H21.9267H21.1767H20.1782H19.5856L19.4878 9.81497ZM15.8767 18.0304V16.8851L14.8574 17.4075C13.8295 17.9343 12.6637 18.2304 11.4267 18.2304C10.1896 18.2304 9.02387 17.9343 7.99594 17.4075L6.97668 16.8851V18.0304V23.4304C6.97668 23.8735 6.61977 24.2304 6.17668 24.2304H4.67668C4.23359 24.2304 3.87668 23.8735 3.87668 23.4304V12.6398V12.1563L3.42446 11.9851C2.28373 11.5534 1.39 10.5877 1.08114 9.35428C1.08102 9.3538 1.0809 9.35332 1.08078 9.35283L0.90342 8.62937L0.903432 8.62937L0.902419 8.62534C0.795366 8.19961 1.05414 7.76424 1.48552 7.65639C1.91604 7.54876 2.34743 7.80739 2.45539 8.23926L2.45565 8.24029L2.63764 8.96357C2.63779 8.96416 2.63794 8.96476 2.63809 8.96536C2.88032 9.94462 3.76184 10.6304 4.77043 10.6304H6.17668H6.92668H14.2314L18.9767 13.3414V23.4304C18.9767 23.8735 18.6198 24.2304 18.1767 24.2304H16.6767C16.2336 24.2304 15.8767 23.8735 15.8767 23.4304V18.0304Z" stroke="black" stroke-width="1.4"/>
<circle cx="20.5" cy="5.5" r="0.5" fill="black"/>
</svg>
