<svg width="19" height="15" viewBox="0 0 19 15" fill="none" xmlns="http://www.w3.org/2000/svg">
<path d="M9.60714 0.526764C14.6369 0.526764 17.1964 3.56248 18.7143 7.35712L18.5445 7.76796C17.007 11.3685 14.454 14.1875 9.60714 14.1875C4.57741 14.1875 2.01786 11.1518 0.5 7.35712C2.01786 3.56248 4.57741 0.526764 9.60714 0.526764ZM9.60714 2.04462C6.03584 2.04462 3.78667 3.74969 2.22609 7.1781L2.14612 7.35712L2.22609 7.53615C3.75038 10.8848 5.9316 12.5894 9.36012 12.6669L9.60714 12.6696C13.1784 12.6696 15.4276 10.9645 16.9882 7.53615L17.0674 7.35712L16.9882 7.1781C15.4639 3.82942 13.2827 2.12486 9.85417 2.04739L9.60714 2.04462ZM9.60714 3.56248C11.7029 3.56248 13.4018 5.2614 13.4018 7.35712C13.4018 9.45284 11.7029 11.1518 9.60714 11.1518C7.51142 11.1518 5.8125 9.45284 5.8125 7.35712C5.8125 5.2614 7.51142 3.56248 9.60714 3.56248ZM9.60714 5.08034C8.34971 5.08034 7.33036 6.09969 7.33036 7.35712C7.33036 8.61456 8.34971 9.63391 9.60714 9.63391C10.8646 9.63391 11.8839 8.61456 11.8839 7.35712C11.8839 6.09969 10.8646 5.08034 9.60714 5.08034Z" fill="#4A4A4A"/>
</svg>
