<svg width="22" height="22" viewBox="0 0 22 22" fill="none" xmlns="http://www.w3.org/2000/svg">
<path opacity="1" fill-rule="evenodd" clip-rule="evenodd" d="M16.917 21.2972C16.917 21.9616 16.3982 22.5009 15.7563 22.5009C15.1144 22.5009 14.5956 21.9616 14.5956 21.2972C14.5956 17.9786 11.9921 15.2787 8.79199 15.2787C5.5919 15.2787 2.98842 17.9786 2.98842 21.2972C2.98842 21.9616 2.46958 22.5009 1.82771 22.5009C1.18583 22.5009 0.666992 21.9616 0.666992 21.2972C0.666992 16.6509 4.3128 12.8713 8.79199 12.8713C13.2712 12.8713 16.917 16.6509 16.917 21.2972M8.79199 3.24164C10.0723 3.24164 11.1134 4.32136 11.1134 5.64904C11.1134 6.97673 10.0723 8.05645 8.79199 8.05645C7.51172 8.05645 6.47056 6.97673 6.47056 5.64904C6.47056 4.32136 7.51172 3.24164 8.79199 3.24164M8.79199 10.4639C11.3525 10.4639 13.4348 8.30441 13.4348 5.64904C13.4348 2.99367 11.3525 0.834229 8.79199 0.834229C6.23146 0.834229 4.14913 2.99367 4.14913 5.64904C4.14913 8.30441 6.23146 10.4639 8.79199 10.4639" fill="black"/>
</svg>
