<svg width="26" height="26" viewBox="0 0 26 26" fill="none" xmlns="http://www.w3.org/2000/svg">
<path fill-rule="evenodd" clip-rule="evenodd" d="M4.76951 12.5906C5.97851 13.0055 6.94159 14.0173 7.34459 15.3L7.38793 15.43C7.84943 16.7907 7.66201 18.2553 6.88851 19.3538C6.74768 19.5532 6.77909 19.7915 6.92751 19.9042L9.17218 21.6093C9.25126 21.6689 9.32818 21.6689 9.37584 21.6635C9.43001 21.6548 9.50909 21.6256 9.57301 21.5346L9.82326 21.1792C10.5697 20.1208 11.7722 19.4676 13.0418 19.4307C14.4675 19.4015 15.748 20.0547 16.5453 21.2063L16.6732 21.3916C16.7371 21.4826 16.8151 21.5129 16.8703 21.5216C16.918 21.5313 16.996 21.5281 17.074 21.4674L19.3068 19.7828C19.4628 19.6658 19.4974 19.4156 19.3815 19.2477L19.0998 18.8414C18.374 17.7927 18.1584 16.4321 18.5235 15.2025C18.92 13.8635 19.9286 12.804 21.2232 12.3707L21.4409 12.297C21.6153 12.2396 21.7096 12.0229 21.6478 11.8236L20.7953 9.0925C20.7552 8.96467 20.6728 8.90725 20.6273 8.88341C20.5623 8.84983 20.4919 8.84441 20.4248 8.86716L20.0564 8.98958C18.7965 9.40883 17.4066 9.18133 16.3395 8.37858L16.2225 8.29083C15.2085 7.52817 14.6051 6.29858 14.6094 5.00291L14.6116 4.69958C14.6116 4.5555 14.5433 4.46558 14.5022 4.42441C14.4632 4.38433 14.3971 4.33666 14.3039 4.33666L11.5447 4.33341C11.3757 4.33341 11.2381 4.49483 11.237 4.69416L11.2359 4.95633C11.2305 6.27258 10.6141 7.52491 9.58709 8.30816L9.44734 8.41433C8.31743 9.27341 6.84409 9.51608 5.50943 9.06108C5.45851 9.04375 5.41084 9.047 5.36534 9.07083C5.33068 9.08817 5.26784 9.13258 5.23751 9.23116L4.35243 12.0435C4.28851 12.2482 4.39359 12.4617 4.59184 12.5299L4.76951 12.5906ZM9.33143 23.8334C8.80493 23.8334 8.29359 23.6622 7.86243 23.334L5.61776 21.6299C4.54526 20.8174 4.30801 19.2542 5.08801 18.1459C5.49318 17.5717 5.57659 16.834 5.33826 16.1342L5.27868 15.9522C5.08043 15.3217 4.62759 14.832 4.06751 14.6402H4.06643L3.88984 14.5785C2.57034 14.1267 1.86618 12.7282 2.28543 11.3935L3.16943 8.58225C3.36984 7.94633 3.80209 7.43283 4.38709 7.13708C4.95909 6.84891 5.60584 6.8045 6.21034 7.01141C6.85926 7.23241 7.57968 7.11216 8.13543 6.68966L8.27518 6.5835C8.76918 6.2065 9.06709 5.59441 9.06926 4.94766L9.07034 4.68658C9.07576 3.29558 10.1862 2.16675 11.5436 2.16675H11.5479L14.3072 2.17C14.9593 2.17108 15.5747 2.42891 16.0383 2.89583C16.5183 3.37791 16.7804 4.0225 16.7783 4.71041L16.7761 5.01266C16.7739 5.62583 17.0545 6.20541 17.5279 6.56075L17.6438 6.6485C18.1411 7.02225 18.7889 7.1295 19.3707 6.9345L19.7379 6.81208C20.363 6.60408 21.0282 6.655 21.6143 6.95508C22.2155 7.26275 22.6597 7.7925 22.8633 8.44791L23.7159 11.179C24.1276 12.4985 23.4148 13.922 22.1288 14.3521L21.9111 14.4247C21.2871 14.6348 20.7963 15.1548 20.6003 15.8178C20.4204 16.4256 20.5244 17.094 20.8808 17.6075L21.1625 18.0137C21.936 19.1317 21.689 20.7004 20.6122 21.5118L18.3794 23.1975C17.8432 23.6027 17.1856 23.7662 16.5258 23.6612C15.8607 23.5539 15.28 23.1856 14.8911 22.6244L14.7633 22.4381C14.3841 21.8921 13.7774 21.5606 13.1415 21.5963C12.5045 21.6137 11.9542 21.9159 11.5945 22.4272L11.3443 22.7826C10.9521 23.3383 10.3703 23.7012 9.70843 23.8052C9.58168 23.8247 9.45601 23.8334 9.33143 23.8334V23.8334ZM12.9998 11.375C12.1039 11.375 11.3748 12.1041 11.3748 13C11.3748 13.8959 12.1039 14.625 12.9998 14.625C13.8957 14.625 14.6248 13.8959 14.6248 13C14.6248 12.1041 13.8957 11.375 12.9998 11.375M12.9998 16.7916C10.909 16.7916 9.20814 15.0908 9.20814 13C9.20814 10.9091 10.909 9.20831 12.9998 9.20831C15.0906 9.20831 16.7915 10.9091 16.7915 13C16.7915 15.0908 15.0906 16.7916 12.9998 16.7916" fill="#FF6D00"/>
</svg>
