<svg width="18" height="18" viewBox="0 0 18 18" fill="none" xmlns="http://www.w3.org/2000/svg">
<path d="M9 1.5C4.8645 1.5 1.5 4.8645 1.5 9V12.1073C1.5 12.8752 2.17275 13.5 3 13.5H3.75C3.94891 13.5 4.13968 13.421 4.28033 13.2803C4.42098 13.1397 4.5 12.9489 4.5 12.75V8.89275C4.5 8.69384 4.42098 8.50307 4.28033 8.36242C4.13968 8.22177 3.94891 8.14275 3.75 8.14275H3.069C3.486 5.24025 5.9835 3 9 3C12.0165 3 14.514 5.24025 14.931 8.14275H14.25C14.0511 8.14275 13.8603 8.22177 13.7197 8.36242C13.579 8.50307 13.5 8.69384 13.5 8.89275V13.5C13.5 14.3273 12.8273 15 12 15H10.5V14.25H7.5V16.5H12C13.6545 16.5 15 15.1545 15 13.5C15.8273 13.5 16.5 12.8752 16.5 12.1073V9C16.5 4.8645 13.1355 1.5 9 1.5Z" fill="white"/>
</svg>
